<svg class="diagram-root" style="background: #f5f6f6" xmlns="http://www.w3.org/2000/svg" xmlns:xlink="http://www.w3.org/1999/xlink"><style>.diagram-root { font-family: "Helvetica Neue", sans-serif; font-size: 12px; } .t { overflow: visible; } .t-bg { y: 40; fill: #fff;   } .th { fill: #005aa0;   } .tht { fill: #fff; font-size: 14px;  } .tf { fill: #323c46; overflow: visible; } .tf.pk { fill: #005aa0; font-weight: bold; } .tf.fk { font-weight: bold; } .ty { fill: #adb1b5; font-weight: normal; text-anchor: end; } .r { fill: transparent; stroke: #c3c3c3; stroke-width: 1; } .l { stroke: 1; } .i { fill: #c2c7ce; stroke: #c2c7ce; } .i.ix { fill: #afb3b6; stroke: #000; } .fa { fill: transparent; overflow: visible; } .fa .bg.hover { fill: #f7f7f7; } .c { cy: 12; r: 4; stroke: #d2d2dc; fill: #d2d2dc; } .hr { fill: transparent; stroke: #323c46; stroke-opacity: 0.035; stroke-width: 13; } .dc { stroke: #fa5a3c; fill: #fa5a3c; } .x { stroke: white; stroke-width: 1; } .hl .th { fill: #1b9bff; } .hl .tht {  } .fhl .bg { fill: #e7f4ff; } .fhls .bg {  } .r.hl { stroke: #1b9bff; } .dim { opacity: 0.25; }</style><g class="drawing-wrapper" transform="translate(-211, 60) scale(1,1)"><g class="rs"><path d="M 401.5 110.11 m -1, 0 a 1,1 0 1,0 2,0 a 1,1 0 1,0 -2,0 M 401.5 110.11 m -0.5, 0 a 0.5,0.5 0 1,0 1,0 a 0.5,0.5 0 1,0 -1,0  M401.5 110.11 L401.5 110.11 413.5 110.11 M 401.5 116.11 m -1, 0 a 1,1 0 1,0 2,0 a 1,1 0 1,0 -2,0 M 401.5 116.11 m -0.5, 0 a 0.5,0.5 0 1,0 1,0 a 0.5,0.5 0 1,0 -1,0  M401.5 116.11 L401.5 116.11 408.5 110.11 401.5 104.11 M 401.5 104.11 m -1, 0 a 1,1 0 1,0 2,0 a 1,1 0 1,0 -2,0 M 401.5 104.11 m -0.5, 0 a 0.5,0.5 0 1,0 1,0 a 0.5,0.5 0 1,0 -1,0  M413.5 110.11 Q 455.15 110.11, 496.8 130.65 T 580.09 151.18 M 592.09 151.18 m -1, 0 a 1,1 0 1,0 2,0 a 1,1 0 1,0 -2,0 M 592.09 151.18 m -0.5, 0 a 0.5,0.5 0 1,0 1,0 a 0.5,0.5 0 1,0 -1,0  M592.09 151.18 L592.09 151.18 580.09 151.18 M586.09 157.18 L586.09 157.18 586.09 145.18" id="h211156328" class="r"></path><path d="M 401.5 135.11 m -1, 0 a 1,1 0 1,0 2,0 a 1,1 0 1,0 -2,0 M 401.5 135.11 m -0.5, 0 a 0.5,0.5 0 1,0 1,0 a 0.5,0.5 0 1,0 -1,0  M401.5 135.11 L401.5 135.11 413.5 135.11 M 401.5 141.11 m -1, 0 a 1,1 0 1,0 2,0 a 1,1 0 1,0 -2,0 M 401.5 141.11 m -0.5, 0 a 0.5,0.5 0 1,0 1,0 a 0.5,0.5 0 1,0 -1,0  M401.5 141.11 L401.5 141.11 408.5 135.11 401.5 129.11 M 401.5 129.11 m -1, 0 a 1,1 0 1,0 2,0 a 1,1 0 1,0 -2,0 M 401.5 129.11 m -0.5, 0 a 0.5,0.5 0 1,0 1,0 a 0.5,0.5 0 1,0 -1,0  M413.5 135.11 Q 454.13 135.11, 494.75 280.56 T 576 426 M 588 426 m -1, 0 a 1,1 0 1,0 2,0 a 1,1 0 1,0 -2,0 M 588 426 m -0.5, 0 a 0.5,0.5 0 1,0 1,0 a 0.5,0.5 0 1,0 -1,0  M588 426 L588 426 576 426 M582 432 L582 432 582 420" id="h1537058300" class="r"></path><path d="M 595 27 m -1, 0 a 1,1 0 1,0 2,0 a 1,1 0 1,0 -2,0 M 595 27 m -0.5, 0 a 0.5,0.5 0 1,0 1,0 a 0.5,0.5 0 1,0 -1,0  M595 27 L595 27 583 27 M 595 33 m -1, 0 a 1,1 0 1,0 2,0 a 1,1 0 1,0 -2,0 M 595 33 m -0.5, 0 a 0.5,0.5 0 1,0 1,0 a 0.5,0.5 0 1,0 -1,0  M595 33 L595 33 588 27 595 21 M 595 21 m -1, 0 a 1,1 0 1,0 2,0 a 1,1 0 1,0 -2,0 M 595 21 m -0.5, 0 a 0.5,0.5 0 1,0 1,0 a 0.5,0.5 0 1,0 -1,0  M583 27 Q 540.63 27, 498.25 68.56 T 413.5 110.11 M 401.5 110.11 m -1, 0 a 1,1 0 1,0 2,0 a 1,1 0 1,0 -2,0 M 401.5 110.11 m -0.5, 0 a 0.5,0.5 0 1,0 1,0 a 0.5,0.5 0 1,0 -1,0  M401.5 110.11 L401.5 110.11 413.5 110.11 M407.5 116.11 L407.5 116.11 407.5 104.11" id="h3177548053" class="r"></path><path d="M 741.17 294 m -1, 0 a 1,1 0 1,0 2,0 a 1,1 0 1,0 -2,0 M 741.17 294 m -0.5, 0 a 0.5,0.5 0 1,0 1,0 a 0.5,0.5 0 1,0 -1,0  M741.17 294 L741.17 294 753.17 294 M 741.17 300 m -1, 0 a 1,1 0 1,0 2,0 a 1,1 0 1,0 -2,0 M 741.17 300 m -0.5, 0 a 0.5,0.5 0 1,0 1,0 a 0.5,0.5 0 1,0 -1,0  M741.17 300 L741.17 300 748.17 294 741.17 288 M 741.17 288 m -1, 0 a 1,1 0 1,0 2,0 a 1,1 0 1,0 -2,0 M 741.17 288 m -0.5, 0 a 0.5,0.5 0 1,0 1,0 a 0.5,0.5 0 1,0 -1,0  M753.17 294 Q 771.38 294, 789.59 248 T 826 202 M 838 202 m -1, 0 a 1,1 0 1,0 2,0 a 1,1 0 1,0 -2,0 M 838 202 m -0.5, 0 a 0.5,0.5 0 1,0 1,0 a 0.5,0.5 0 1,0 -1,0  M838 202 L838 202 826 202 M832 208 L832 208 832 196" id="h1397587031" class="r"></path><path d="M 594 319 m -1, 0 a 1,1 0 1,0 2,0 a 1,1 0 1,0 -2,0 M 594 319 m -0.5, 0 a 0.5,0.5 0 1,0 1,0 a 0.5,0.5 0 1,0 -1,0  M594 319 L594 319 582 319 M 594 325 m -1, 0 a 1,1 0 1,0 2,0 a 1,1 0 1,0 -2,0 M 594 325 m -0.5, 0 a 0.5,0.5 0 1,0 1,0 a 0.5,0.5 0 1,0 -1,0  M594 325 L594 325 587 319 594 313 M 594 313 m -1, 0 a 1,1 0 1,0 2,0 a 1,1 0 1,0 -2,0 M 594 313 m -0.5, 0 a 0.5,0.5 0 1,0 1,0 a 0.5,0.5 0 1,0 -1,0  M582 319 Q 539.88 319, 497.75 214.56 T 413.5 110.11 M 401.5 110.11 m -1, 0 a 1,1 0 1,0 2,0 a 1,1 0 1,0 -2,0 M 401.5 110.11 m -0.5, 0 a 0.5,0.5 0 1,0 1,0 a 0.5,0.5 0 1,0 -1,0  M401.5 110.11 L401.5 110.11 413.5 110.11 M407.5 116.11 L407.5 116.11 407.5 104.11" id="h2286254435" class="r"></path><path d="M 739.26 176.18 m -1, 0 a 1,1 0 1,0 2,0 a 1,1 0 1,0 -2,0 M 739.26 176.18 m -0.5, 0 a 0.5,0.5 0 1,0 1,0 a 0.5,0.5 0 1,0 -1,0  M739.26 176.18 L739.26 176.18 751.26 176.18 M 739.26 182.18 m -1, 0 a 1,1 0 1,0 2,0 a 1,1 0 1,0 -2,0 M 739.26 182.18 m -0.5, 0 a 0.5,0.5 0 1,0 1,0 a 0.5,0.5 0 1,0 -1,0  M739.26 182.18 L739.26 182.18 746.26 176.18 739.26 170.18 M 739.26 170.18 m -1, 0 a 1,1 0 1,0 2,0 a 1,1 0 1,0 -2,0 M 739.26 170.18 m -0.5, 0 a 0.5,0.5 0 1,0 1,0 a 0.5,0.5 0 1,0 -1,0  M751.26 176.18 Q 769.95 176.18, 788.63 189.09 T 826 202 M 838 202 m -1, 0 a 1,1 0 1,0 2,0 a 1,1 0 1,0 -2,0 M 838 202 m -0.5, 0 a 0.5,0.5 0 1,0 1,0 a 0.5,0.5 0 1,0 -1,0  M838 202 L838 202 826 202 M832 208 L832 208 832 196" id="h1607168654" class="r"></path></g><g class="hrs"></g><g class="ts"><svg width="168.5" height="225" x="233" y="53.11" id="h1639608377" class="t"><rect height="40" width="168.5" class="th"></rect><text x="13" y="25" class="tht">employees</text><rect height="185" width="168.5" class="t-bg" y="40"></rect><text x="13" y="61" class="tf pk">emp_no<tspan x="155.5" class="ty">int</tspan></text><path d="M7,14A2,2 0 0,1 5,12A2,2 0 0,1 7,10A2,2 0 0,1 9,12A2,2 0 0,1 7,14M12.65,10C11.83,7.67 9.61,6 7, 6A6, 6 0 0, 0 1, 12A6, 6 0 0, 0 7, 18C9.61, 18 11.83, 16.33 12.65, 14H17V18H21V14H23V10H12.65Z" class="i pk" transform="translate(122.826171875, 48) scale(0.65)"></path><text x="13" y="86" class="tf fk">emp_title_id<tspan x="155.5" class="ty">VARCHAR</tspan></text><text x="13" y="111" class="tf">birth_date<tspan x="155.5" class="ty">date</tspan></text><text x="13" y="136" class="tf">first_name<tspan x="155.5" class="ty">VARCHAR</tspan></text><text x="13" y="161" class="tf">last_name<tspan x="155.5" class="ty">VARCHAR</tspan></text><text x="13" y="186" class="tf">sex<tspan x="155.5" class="ty">VARCHAR</tspan></text><text x="13" y="211" class="tf">hire_date<tspan x="155.5" class="ty">date</tspan></text></svg><svg width="102.04" height="100" x="595" y="-30" id="h2472833127" class="t"><rect height="40" width="102.04" class="th"></rect><text x="13" y="25" class="tht">salaries</text><rect height="60" width="102.04" class="t-bg" y="40"></rect><text x="13" y="61" class="tf fk">emp_no<tspan x="89.04" class="ty">int</tspan></text><text x="13" y="86" class="tf">salary<tspan x="89.04" class="ty">int</tspan></text></svg><svg width="147.17" height="100" x="594" y="237" id="h1676682957" class="t"><rect height="40" width="147.17" class="th"></rect><text x="13" y="25" class="tht">dept_manager</text><rect height="60" width="147.17" class="t-bg" y="40"></rect><text x="13" y="61" class="tf fk">dept_no<tspan x="134.17" class="ty">VARCHAR</tspan></text><text x="13" y="86" class="tf pk">emp_no<tspan x="134.17" class="ty">int</tspan></text><path d="M7,14A2,2 0 0,1 5,12A2,2 0 0,1 7,10A2,2 0 0,1 9,12A2,2 0 0,1 7,14M12.65,10C11.83,7.67 9.61,6 7, 6A6, 6 0 0, 0 1, 12A6, 6 0 0, 0 7, 18C9.61, 18 11.83, 16.33 12.65, 14H17V18H21V14H23V10H12.65Z" class="i pk" transform="translate(101.49617187499999, 73) scale(0.65)"></path></svg><svg width="147.17" height="100" x="592.09" y="94.18" id="h1090417462" class="t"><rect height="40" width="147.17" class="th"></rect><text x="13" y="25" class="tht">dept_emp</text><rect height="60" width="147.17" class="t-bg" y="40"></rect><text x="13" y="61" class="tf fk">emp_no<tspan x="134.17" class="ty">int</tspan></text><text x="13" y="86" class="tf fk">dept_no<tspan x="134.17" class="ty">VARCHAR</tspan></text></svg><svg width="138.48" height="100" x="588" y="369" id="h311790747" class="t"><rect height="40" width="138.48" class="th"></rect><text x="13" y="25" class="tht">titles</text><rect height="60" width="138.48" class="t-bg" y="40"></rect><text x="13" y="61" class="tf fk">title_id<tspan x="125.47999999999999" class="ty">VARCHAR</tspan></text><text x="13" y="86" class="tf">title<tspan x="125.47999999999999" class="ty">VARCHAR</tspan></text></svg><svg width="163.84" height="100" x="838" y="145" id="h475896179" class="t"><rect height="40" width="163.84" class="th"></rect><text x="13" y="25" class="tht">departments</text><rect height="60" width="163.84" class="t-bg" y="40"></rect><text x="13" y="61" class="tf fk">dept_no<tspan x="150.84" class="ty">VARCHAR</tspan></text><text x="13" y="86" class="tf">dept_name<tspan x="150.84" class="ty">VARCHAR</tspan></text></svg></g></g><text class="qdbd-link" x="10" y="20">www.quickdatabasediagrams.com</text></svg>